# xmcd
#
# Track frame offsets: 
#        150
#        19217
#        38527
#        56633
#        83526
#        104145
#        127417
#        142377
#        162296
#        180464
#        191882
#        216032
#        233189
#        250625
#        269869
#
# Disc length: 3795 seconds
#
# Revision: 0
# Processed by: cddbd v1.5.2PL0 Copyright (c) Steve Scherf et al.
# Submitted via: ExactAudioCopy v0.95a5
#
DISCID=e40ed10f
DTITLE=Various Artist - 箫声寄语3CD
DYEAR=2007
DGENRE=器乐类
TTITLE0=春江花月夜
TTITLE1=草原之夜
TTITLE2=北国之春
TTITLE3=小河淌水
TTITLE4=梁祝
TTITLE5=茉莉花
TTITLE6=甜蜜密
TTITLE7=千千阈歌
TTITLE8=至少还有你
TTITLE9=小城故事
TTITLE10=橄榄树
TTITLE11=夜莺
TTITLE12=好人一生平安
TTITLE13=友谊地久天长
TTITLE14=悲情的城市
EXTD=
EXTT0=
EXTT1=
EXTT2=
EXTT3=
EXTT4=
EXTT5=
EXTT6=
EXTT7=
EXTT8=
EXTT9=
EXTT10=
EXTT11=
EXTT12=
EXTT13=
EXTT14=
PLAYORDER=
